<svg width="24" height="24" viewBox="0 0 24 24"  xmlns="http://www.w3.org/2000/svg">
<path d="M3.64286 10.7143H20.3571C20.5276 10.7143 20.6912 10.6466 20.8117 10.526C20.9323 10.4054 21 10.2419 21 10.0714V8.78571C21 8.61522 20.9323 8.4517 20.8117 8.33115C20.6912 8.21059 20.5276 8.14286 20.3571 8.14286H3.64286C3.47236 8.14286 3.30885 8.21059 3.18829 8.33115C3.06773 8.4517 3 8.61522 3 8.78571V10.0714C3 10.2419 3.06773 10.4054 3.18829 10.526C3.30885 10.6466 3.47236 10.7143 3.64286 10.7143ZM20.3571 18.4286H3.64286C3.47236 18.4286 3.30885 18.4963 3.18829 18.6169C3.06773 18.7374 3 18.9009 3 19.0714V20.3571C3 20.5276 3.06773 20.6912 3.18829 20.8117C3.30885 20.9323 3.47236 21 3.64286 21H20.3571C20.5276 21 20.6912 20.9323 20.8117 20.8117C20.9323 20.6912 21 20.5276 21 20.3571V19.0714C21 18.9009 20.9323 18.7374 20.8117 18.6169C20.6912 18.4963 20.5276 18.4286 20.3571 18.4286ZM20.4845 3H9.94406C9.87635 2.99995 9.8093 3.01324 9.74673 3.03913C9.68416 3.06502 9.62732 3.10299 9.57944 3.15087C9.53156 3.19874 9.49359 3.25559 9.4677 3.31816C9.44182 3.38072 9.42852 3.44778 9.42857 3.51549V5.05594C9.42852 5.12365 9.44182 5.1907 9.4677 5.25327C9.49359 5.31584 9.53156 5.37268 9.57944 5.42056C9.62732 5.46844 9.68416 5.50641 9.74673 5.5323C9.8093 5.55818 9.87635 5.57148 9.94406 5.57143H20.4845C20.5522 5.57148 20.6193 5.55818 20.6818 5.5323C20.7444 5.50641 20.8013 5.46844 20.8491 5.42056C20.897 5.37268 20.935 5.31584 20.9609 5.25327C20.9868 5.1907 21.0001 5.12365 21 5.05594V3.51549C21.0001 3.44778 20.9868 3.38072 20.9609 3.31816C20.935 3.25559 20.897 3.19874 20.8491 3.15087C20.8013 3.10299 20.7444 3.06502 20.6818 3.03913C20.6193 3.01324 20.5522 2.99995 20.4845 3ZM20.4845 13.2857H9.94406C9.87635 13.2857 9.8093 13.299 9.74673 13.3248C9.68416 13.3507 9.62732 13.3887 9.57944 13.4366C9.53156 13.4845 9.49359 13.5413 9.4677 13.6039C9.44182 13.6664 9.42852 13.7335 9.42857 13.8012V15.3417C9.42852 15.4094 9.44182 15.4764 9.4677 15.539C9.49359 15.6016 9.53156 15.6584 9.57944 15.7063C9.62732 15.7542 9.68416 15.7921 9.74673 15.818C9.8093 15.8439 9.87635 15.8572 9.94406 15.8571H20.4845C20.5522 15.8572 20.6193 15.8439 20.6818 15.818C20.7444 15.7921 20.8013 15.7542 20.8491 15.7063C20.897 15.6584 20.935 15.6016 20.9609 15.539C20.9868 15.4764 21.0001 15.4094 21 15.3417V13.8012C21.0001 13.7335 20.9868 13.6664 20.9609 13.6039C20.935 13.5413 20.897 13.4845 20.8491 13.4366C20.8013 13.3887 20.7444 13.3507 20.6818 13.3248C20.6193 13.299 20.5522 13.2857 20.4845 13.2857Z" />
</svg>
