<svg width="82" height="31" viewBox="0 0 82 31" xmlns="http://www.w3.org/2000/svg">
<path d="M0 12.7686H2.75045V7.94169H3.57012C4.71766 7.95991 5.24589 8.36063 5.59197 9.9089C5.93805 11.4207 6.24771 12.4043 6.42986 12.7686H9.27138C9.03458 12.295 8.67029 10.6921 8.28777 9.28959C7.97812 8.16027 7.50453 7.35881 6.64843 7.01273V6.95809C7.7049 6.57557 8.81601 5.5009 8.81601 3.95263C8.81601 2.82331 8.41528 1.96721 7.66847 1.38433C6.79415 0.673951 5.51911 0.400728 3.69762 0.400728C2.204 0.400728 0.89253 0.510017 0 0.673951V12.7686ZM2.75045 2.5683C2.95081 2.51365 3.33332 2.47723 4.00728 2.47723C5.28232 2.47723 6.04734 3.0601 6.04734 4.17121C6.04734 5.24589 5.22767 5.93805 3.84334 5.93805H2.75045V2.5683Z"/>
<path d="M10.6152 12.714C11.2891 12.8051 12.3274 12.8961 13.7663 12.8961C16.1707 12.8961 18.1561 12.3861 19.4494 11.3114C20.6151 10.3096 21.4712 8.6885 21.4712 6.33878C21.4712 4.15299 20.6698 2.65937 19.3947 1.7122C18.229 0.837885 16.6989 0.400728 14.3492 0.400728C12.9649 0.400728 11.6352 0.491802 10.6152 0.673951V12.714ZM13.3838 2.64116C13.6206 2.58651 14.0396 2.53187 14.6406 2.53187C17.045 2.53187 18.5386 3.87977 18.5386 6.42985C18.5386 9.36245 16.8811 10.7468 14.3492 10.7286C14.0213 10.7286 13.6206 10.7286 13.3838 10.6739V2.64116Z"/>
<path d="M26.1422 12.1858C26.8344 12.5683 28.2187 12.9508 29.6212 12.9508C32.991 12.9508 34.5575 11.2022 34.5575 9.14387C34.5575 7.41346 33.5557 6.28414 31.3881 5.48268C29.7852 4.88159 29.1112 4.53551 29.1112 3.75227C29.1112 3.13296 29.6941 2.5683 30.8963 2.5683C32.0803 2.5683 32.9728 2.91438 33.4464 3.15118L34.0657 0.928959C33.3371 0.582876 32.3353 0.309653 30.9327 0.309653C28.0548 0.309653 26.2879 1.89435 26.2879 3.98906C26.2879 5.77412 27.6358 6.90344 29.6759 7.63204C31.1513 8.14206 31.7342 8.57921 31.7342 9.34424C31.7342 10.1457 31.0602 10.6739 29.7852 10.6739C28.6012 10.6739 27.4355 10.2914 26.7069 9.9089L26.1422 12.1858Z"/>
<path d="M36.4729 2.18579V3.86156H35.2889V5.90162H36.4729V9.5446C36.4729 10.8014 36.7279 11.6575 37.2379 12.1858C37.6933 12.6411 38.4401 12.9508 39.3326 12.9508C40.0977 12.9508 40.7716 12.8415 41.1177 12.714L41.0995 10.6193C40.8445 10.6739 40.6623 10.6921 40.2798 10.6921C39.4601 10.6921 39.1869 10.2003 39.1869 9.12566V5.90162H41.1723V3.86156H39.1869V1.43898L36.4729 2.18579Z"/>
<path d="M50.01 7.50453C50.01 5.40982 49.081 3.66119 46.112 3.66119C44.4909 3.66119 43.2705 4.11656 42.6512 4.46265L43.1612 6.22949C43.744 5.88341 44.7094 5.57376 45.6202 5.57376C46.9863 5.57376 47.2413 6.24771 47.2413 6.72129V6.83058C44.0901 6.83058 42.0136 7.92348 42.0136 10.2368C42.0136 11.6575 43.0883 12.969 44.8916 12.969C45.948 12.969 46.8588 12.5865 47.4417 11.8761H47.4963L47.6602 12.7686H50.1557C50.0464 12.2768 50.01 11.4572 50.01 10.6193V7.50453ZM47.3324 9.52639C47.3324 9.69032 47.3142 9.85425 47.2777 9.99997C47.0956 10.5646 46.5127 11.02 45.8388 11.02C45.2195 11.02 44.7459 10.6739 44.7459 9.96354C44.7459 8.90708 45.8752 8.561 47.3324 8.561V9.52639Z"/>
<path d="M52.2779 2.18579V3.86156H51.0939V5.90162H52.2779V9.5446C52.2779 10.8014 52.5329 11.6575 53.0429 12.1858C53.4983 12.6411 54.2451 12.9508 55.1376 12.9508C55.9026 12.9508 56.5766 12.8415 56.9227 12.714L56.9044 10.6193C56.6494 10.6739 56.4673 10.6921 56.0848 10.6921C55.2651 10.6921 54.9919 10.2003 54.9919 9.12566V5.90162H56.9773V3.86156H54.9919V1.43898L52.2779 2.18579Z"/>
<path d="M61.1701 12.7686V3.86156H58.4015V12.7686H61.1701ZM59.7858 2.76866C60.6966 2.76866 61.2612 2.14936 61.2612 1.38433C61.243 0.601091 60.6966 0 59.804 0C58.9115 0 58.3286 0.601091 58.3286 1.38433C58.3286 2.14936 58.8933 2.76866 59.7676 2.76866H59.7858Z"/>
<path d="M67.3343 12.969C69.7023 12.969 72.0155 11.4754 72.0155 8.23313C72.0155 5.53733 70.1941 3.66119 67.48 3.66119C64.6021 3.66119 62.7077 5.5009 62.7077 8.37885C62.7077 11.2568 64.7114 12.969 67.3161 12.969H67.3343ZM67.3708 10.9836C66.205 10.9836 65.5675 9.83604 65.5675 8.3242C65.5675 6.99452 66.0775 5.64661 67.389 5.64661C68.6458 5.64661 69.1558 6.99452 69.1558 8.30599C69.1558 9.9089 68.4819 10.9836 67.389 10.9836H67.3708Z"/>
<path d="M73.5483 12.7686H76.317V7.63204C76.317 7.37703 76.3352 7.12202 76.408 6.93987C76.6084 6.42986 77.0638 5.90162 77.8288 5.90162C78.8306 5.90162 79.2313 6.68486 79.2313 7.8324V12.7686H82V7.50453C82 4.88159 80.6339 3.66119 78.8124 3.66119C77.3188 3.66119 76.4262 4.51729 76.062 5.10017H76.0073L75.8798 3.86156H73.4754C73.5119 4.66301 73.5483 5.59197 73.5483 6.70308V12.7686Z"/>
<path d="M3.83398 30L1.34961 22.8457H1.30273C1.36914 23.9082 1.40234 24.9043 1.40234 25.834V30H0.130859V21.4336H2.10547L4.48438 28.248H4.51953L6.96875 21.4336H8.94922V30H7.60156V25.7637C7.60156 25.3379 7.61133 24.7832 7.63086 24.0996C7.6543 23.416 7.67383 23.002 7.68945 22.8574H7.64258L5.07031 30H3.83398ZM16.3995 30L15.5441 27.6211H12.2687L11.4308 30H9.95422L13.1593 21.3984H14.6827L17.8878 30H16.3995ZM15.1749 26.4141L14.3722 24.082C14.3136 23.9258 14.2316 23.6797 14.1261 23.3438C14.0245 23.0078 13.9542 22.7617 13.9152 22.6055C13.8097 23.0859 13.6554 23.6113 13.4523 24.1816L12.6788 26.4141H15.1749ZM20.2991 25.418H21.2717C21.9241 25.418 22.3967 25.2969 22.6897 25.0547C22.9827 24.8125 23.1291 24.4531 23.1291 23.9766C23.1291 23.4922 22.9709 23.1445 22.6545 22.9336C22.3381 22.7227 21.8616 22.6172 21.2248 22.6172H20.2991V25.418ZM20.2991 26.5781V30H18.8987V21.4336H21.3186C22.4241 21.4336 23.2424 21.6406 23.7737 22.0547C24.3049 22.4688 24.5705 23.0938 24.5705 23.9297C24.5705 24.9961 24.0159 25.7559 22.9065 26.209L25.3264 30H23.7327L21.6819 26.5781H20.2991ZM32.9935 30H31.3705L28.681 26.1211L27.8548 26.7949V30H26.4545V21.4336H27.8548V25.5234C28.2377 25.0547 28.6185 24.6035 28.9974 24.1699L31.3119 21.4336H32.9056C31.4095 23.1914 30.3373 24.4434 29.6888 25.1895L32.9935 30ZM38.8559 30H34.0102V21.4336H38.8559V22.6172H35.4106V24.9492H38.6391V26.1211H35.4106V28.8105H38.8559V30ZM43.5523 30H42.152V22.6348H39.6324V21.4336H46.0719V22.6348H43.5523V30ZM47.2702 30V21.4336H48.6706V30H47.2702ZM57.9549 30H56.2381L52.0252 23.1738H51.9784L52.0077 23.5547C52.0623 24.2812 52.0897 24.9453 52.0897 25.5469V30H50.8182V21.4336H52.5174L56.7186 28.2246H56.7537C56.7459 28.1348 56.7303 27.8086 56.7069 27.2461C56.6834 26.6797 56.6717 26.2383 56.6717 25.9219V21.4336H57.9549V30ZM63.6005 25.3535H66.7529V29.6543C66.2373 29.8223 65.7412 29.9414 65.2646 30.0117C64.792 30.082 64.2802 30.1172 63.7295 30.1172C62.4326 30.1172 61.4326 29.7344 60.7295 28.9688C60.0263 28.1992 59.6748 27.1152 59.6748 25.7168C59.6748 24.3379 60.0713 23.2598 60.8642 22.4824C61.6572 21.7012 62.749 21.3105 64.1396 21.3105C65.0341 21.3105 65.8818 21.4824 66.6826 21.8262L66.1904 22.9922C65.4951 22.6719 64.7998 22.5117 64.1045 22.5117C63.1904 22.5117 62.4677 22.7988 61.9365 23.373C61.4052 23.9473 61.1396 24.7324 61.1396 25.7285C61.1396 26.7754 61.3779 27.5723 61.8545 28.1191C62.3349 28.6621 63.0244 28.9336 63.9228 28.9336C64.3759 28.9336 64.8603 28.877 65.3759 28.7637V26.5547H63.6005V25.3535Z"/>
</svg>
